PathFileType	4	(X/Y/Z)	F:\shared\Remotetake0125-Body25.trc
DataRate	CameraRate	NumFrames	NumMarkers	Units	OrigDataRate	OrigDataStartFrame	OrigNumFrames	useTimeStamp
60		60		4		79		mm		60		1350		1799		1																					
Frame#	Time	Timestamp	HeadTop			LHeadFront			LHeadBack			RHeadFront			RHeadBack			C7			T10			CLAV			STRN			LShoulderFront			LShoulderBack			LUArmHigh			LElbow			LElbowIn			LForearm			LWristIn			LWristOut			LHandIn			LHandOut			RShoulderFront			RShoulderBack			RUArmHigh			RElbow			RElbowIn			RForearm			RWristIn			RWristOut			RHandIn			RHandOut			WaistLFront			WaistLSide			WaistLBack			WaistRFront			WaistRSide			WaistRBack			LThigh			LKnee			LKneeIn			LShin			LAnkleOut			LHeel			LMT5			LMT1			LToe			RThigh			RKnee			RKneeIn			RShin			RAnkleOut			RHeel			RMT5			RMT1			RToe			C7			C7			STRN			STRN			LUArmHigh			LForearm			RUArmHigh			RForearm			WaistLFront			WaistLFront			WaistLSide			WaistLSide			WaistLBack			WaistLBack			WaistRFront			WaistRFront			WaistRSide			WaistRSide			WaistRBack			WaistRBack			LThigh			LShin			RThigh			RShin			LShoulderFront			RShoulderFront			
			X1	Y1	Z1	X2	Y2	Z2	X3	Y3	Z3	X4	Y4	Z4	X5	Y5	Z5	X6	Y6	Z6	X7	Y7	Z7	X8	Y8	Z8	X9	Y9	Z9	X10	Y10	Z10	X11	Y11	Z11	X12	Y12	Z12	X13	Y13	Z13	X14	Y14	Z14	X15	Y15	Z15	X16	Y16	Z16	X17	Y17	Z17	X18	Y18	Z18	X19	Y19	Z19	X20	Y20	Z20	X21	Y21	Z21	X22	Y22	Z22	X23	Y23	Z23	X24	Y24	Z24	X25	Y25	Z25	X26	Y26	Z26	X27	Y27	Z27	X28	Y28	Z28	X29	Y29	Z29	X30	Y30	Z30	X31	Y31	Z31	X32	Y32	Z32	X33	Y33	Z33	X34	Y34	Z34	X35	Y35	Z35	X36	Y36	Z36	X37	Y37	Z37	X38	Y38	Z38	X39	Y39	Z39	X40	Y40	Z40	X41	Y41	Z41	X42	Y42	Z42	X43	Y43	Z43	X44	Y44	Z44	X45	Y45	Z45	X46	Y46	Z46	X47	Y47	Z47	X48	Y48	Z48	X49	Y49	Z49	X50	Y50	Z50	X51	Y51	Z51	X52	Y52	Z52	X53	Y53	Z53	X54	Y54	Z54	X55	Y55	Z55	X56	Y56	Z56	X57	Y57	Z57	X58	Y58	Z58	X59	Y59	Z59	X60	Y60	Z60	X61	Y61	Z61	X62	Y62	Z62	X63	Y63	Z63	X64	Y64	Z64	X65	Y65	Z65	X66	Y66	Z66	X67	Y67	Z67	X68	Y68	Z68	X69	Y69	Z69	X70	Y70	Z70	X71	Y71	Z71	X72	Y72	Z72	X73	Y73	Z73	X74	Y74	Z74	X75	Y75	Z75	X76	Y76	Z76	X77	Y77	Z77	X78	Y78	Z78	X79	Y79	Z79	

1350	22.483	1702448234089	206.104385	52.662334	1582.676758	147.509842	-57.697861	1539.270386	262.644775	-114.779762	1553.953003	279.369354	60.975185	1536.187500	301.912323	-79.965950	1553.820557	385.025177	-161.055466	1369.293701	458.732819	-226.305099	1087.412109	285.205231	-8.160740	1196.695801	307.601746	30.401213	1000.357605	184.194534	-114.166367	1238.579102	208.595551	-248.610901	1293.447510	121.291977	-250.578064	1159.965942	96.009354	-234.323898	1032.815674	180.354523	-295.802979	985.152588																395.539246	32.167503	1286.780396	503.222107	-56.089630	1324.647705	512.171631	88.225494	1177.962158																						230.028534	-93.093643	875.454285	222.844513	-201.848007	880.259583	343.537567	-276.260071	883.364990	457.172302	15.924103	885.989502				508.822510	-196.661392	892.118347	136.476456	-74.804451	614.276855																									479.933136	18.873674	617.285889	541.029602	-96.629234	421.975159				548.698792	-172.034332	190.252060	556.928955	-265.589783	68.979370	520.043091	-329.189667	94.537811	566.442139	-151.508560	23.634933	444.780334	-179.408157	13.012660	502.186279	-132.132767	46.183563																																																																															
1351	22.500	1702448234106	221.923950	42.151337	1584.471191	161.530212	-66.592804	1540.545166	274.767120	-126.605446	1556.190552	295.477844	48.751881	1538.139771	314.698792	-92.617241	1556.029297	397.738098	-174.299606	1368.839478	467.046082	-237.226166	1085.498413	296.780701	-18.289677	1200.601440	319.192078	17.670834	1002.643494	194.614868	-124.127991	1242.525635	220.108795	-260.098907	1294.287476	131.951202	-261.256409	1162.566040	103.210594	-239.777969	1035.316772	186.688339	-302.105621	985.814453																408.790344	20.412819	1288.786011	515.854004	-70.145226	1324.088745	525.391235	75.508011	1179.309082																						237.606689	-101.066895	877.926575	229.515259	-211.416763	881.500244	348.668304	-285.213684	881.493469	465.872437	5.782177	886.794312				515.572998	-207.412338	891.127991	140.176712	-77.991188	618.356934																									485.866608	9.470525	618.536011	548.914917	-104.395744	422.268890				552.020996	-177.981934	189.809555	556.898376	-267.959442	65.270340	519.997009	-331.553009	89.809280	566.937378	-151.697342	23.630991	444.822540	-179.582550	12.559235	502.466400	-132.999680	46.353523																																																																															
1352	22.516	1702448234122	236.923080	32.511620	1586.557129	174.129654	-74.985725	1542.853149	286.040436	-137.391129	1558.832153	310.782043	37.286346	1540.573608	326.691711	-104.267685	1558.748169	409.573547	-187.136963	1369.139648	475.119171	-247.819778	1084.674683	309.218933	-28.350918	1204.273804	328.568542	8.780291	1005.562012	205.346954	-134.130997	1245.932373	230.718231	-270.878662	1295.712891	140.558853	-270.052063	1165.629639	110.644882	-245.382248	1037.936279	192.226151	-308.791626	986.754761																421.227661	8.348791	1290.932373	528.048523	-83.326759	1324.086792	538.091858	63.049923	1180.842041																						244.661133	-108.206154	880.526123	235.348602	-218.887314	882.485901	354.084595	-293.793488	881.371582	474.627625	-4.503577	887.681091				521.821045	-218.030426	890.418091	144.697083	-82.432892	622.294434																									493.119537	0.798391	620.376831	556.550659	-113.203362	423.221741				554.464844	-183.035446	189.610489	556.999817	-269.642029	63.025623	520.355957	-333.473877	86.815331	567.169373	-152.250748	23.552052	444.872345	-179.665756	12.093135	502.631104	-133.811844	46.386921																																																																															
1353	22.533	1702448234139	250.939102	23.833464	1589.126953	185.356918	-82.357872	1545.870117	296.317230	-147.235489	1562.357544	325.036530	26.913153	1543.520996	337.664124	-115.670815	1563.214111	420.373657	-199.185257	1370.589478	482.700409	-258.342468	1084.894653	320.133301	-38.183125	1207.848999	337.128906	1.071127	1008.501587	215.404144	-143.250977	1249.665283	240.026657	-280.983765	1298.081299	148.491791	-277.302338	1168.544189	117.491966	-250.857925	1041.492920	198.364960	-313.845398	989.537781																432.732483	-3.385408	1293.542358	539.004883	-96.446434	1324.821777	549.950562	50.702316	1182.385132																						251.417847	-115.950066	882.595154	241.094360	-227.285751	883.660339	358.935242	-301.939545	882.020569	482.904724	-15.294024	888.621216				527.438293	-229.019180	891.614075	148.979523	-88.089088	625.896973																									499.152802	-7.348394	623.249695	564.470215	-123.120644	425.856750				556.669556	-186.174530	189.688934	557.468384	-270.062439	62.105713	521.318848	-334.287445	85.231567	567.365967	-152.683167	23.357327	444.683746	-179.980728	12.459211	502.896667	-134.715820	46.521149																																																																															
